<svg width="20" height="20" viewBox="0 0 20 20" fill="none" xmlns="http://www.w3.org/2000/svg">
<path d="M10.4996 9.99402L19.8976 0.594181C19.9629 0.528297 19.9995 0.439339 19.9995 0.346637C19.9995 0.253935 19.9629 0.164977 19.8976 0.0990934C19.8307 0.0353672 19.7418 -0.000126685 19.6493 3.39773e-07C19.5569 0.000127365 19.4681 0.0358658 19.4014 0.0997756L10.0047 9.49893L0.606727 0.0990934C0.539791 0.0357843 0.451119 0.000502408 0.358944 0.000502408C0.266769 0.000502408 0.178098 0.0357843 0.111162 0.0990934C0.0459259 0.164862 0.00932661 0.253706 0.00932661 0.346296C0.00932661 0.438886 0.0459259 0.527731 0.111162 0.593499L9.50984 9.99402L0.111844 19.3939C0.077358 19.4259 0.0496848 19.4645 0.0304781 19.5074C0.0112714 19.5503 0.000925692 19.5967 5.93248e-05 19.6437C-0.000807043 19.6907 0.00782364 19.7375 0.0254356 19.7811C0.0430477 19.8247 0.0692792 19.8643 0.102563 19.8975C0.135847 19.9308 0.175499 19.957 0.21915 19.9746C0.262801 19.9922 0.309555 20.0008 0.356617 19.9999C0.40368 19.9991 0.450084 19.9887 0.493058 19.9695C0.536031 19.9504 0.574691 19.9227 0.606727 19.8883L10.0047 10.4891L19.402 19.8889C19.4345 19.9215 19.4731 19.9472 19.5156 19.9649C19.5581 19.9825 19.6036 19.9915 19.6496 19.9916C19.6956 19.9916 19.7411 19.9826 19.7836 19.965C19.8261 19.9475 19.8647 19.9217 19.8973 19.8893C19.9298 19.8568 19.9556 19.8183 19.9733 19.7758C19.9909 19.7334 20 19.6879 20 19.642C20 19.596 19.991 19.5505 19.9734 19.5081C19.9559 19.4656 19.9301 19.427 19.8976 19.3945L10.4996 9.99402Z" fill="#212529"/>
</svg>
