<svg width="22" height="41" viewBox="0 0 22 41" fill="none" xmlns="http://www.w3.org/2000/svg">
<line x1="10.5" y1="21" x2="10.5" y2="40.1455" stroke="#B2B2B2" stroke-width="3"/>
<circle cx="11" cy="11" r="11" fill="#FF7560"/>
<path d="M11 4C11.2652 4 11.5075 4.15175 11.6261 4.39198L13.4314 8.04933L17.4008 8.6342C17.6644 8.67305 17.8834 8.86013 17.9658 9.1168C18.0481 9.37346 17.9794 9.65522 17.7887 9.84362L14.8997 12.697L15.5496 16.72C15.5925 16.9859 15.483 17.2535 15.267 17.4106C15.0509 17.5677 14.7656 17.5872 14.5307 17.4609L11 15.5632L7.46937 17.4609C7.23443 17.5872 6.94914 17.5677 6.73308 17.4106C6.51701 17.2535 6.40751 16.9859 6.45046 16.72L7.10034 12.697L4.21135 9.84362C4.0206 9.65522 3.95195 9.37346 4.03428 9.1168C4.1166 8.86013 4.33562 8.67305 4.59926 8.6342L8.56869 8.04933L10.3739 4.39198C10.4925 4.15175 10.7349 4 11 4ZM11 6.29467L9.65737 9.01484C9.55492 9.22239 9.35871 9.36603 9.13203 9.39943L6.20389 9.83088L8.33869 11.9393C8.50227 12.1009 8.57773 12.3332 8.54083 12.5616L8.06003 15.538L10.6719 14.1341C10.8771 14.0238 11.1229 14.0238 11.3281 14.1341L13.94 15.538L13.4592 12.5616C13.4223 12.3332 13.4978 12.1009 13.6614 11.9393L15.7961 9.83088L12.868 9.39943C12.6413 9.36603 12.4451 9.22239 12.3427 9.01484L11 6.29467Z" fill="white"/>
<path d="M9.65737 9.01484L11 6.29467L12.3427 9.01484C12.4451 9.22239 12.6413 9.36603 12.868 9.39943L15.7961 9.83088L13.6614 11.9393C13.4978 12.1009 13.4223 12.3332 13.4592 12.5616L13.94 15.538L11.3281 14.1341C11.1229 14.0238 10.8771 14.0238 10.6719 14.1341L8.06003 15.538L8.54083 12.5616C8.57773 12.3332 8.50227 12.1009 8.33869 11.9393L6.20389 9.83088L9.13203 9.39943C9.35871 9.36603 9.55492 9.22239 9.65737 9.01484Z" fill="white"/>
</svg>
