<svg width="30" height="55" viewBox="0 0 30 55" fill="none" xmlns="http://www.w3.org/2000/svg">
<line x1="15" y1="28" x2="15" y2="55" stroke="#B2B2B2" stroke-width="4"/>
<circle cx="15" cy="15" r="15" fill="#ED2304"/>
<path d="M15 5C15.3788 5 15.7251 5.214 15.8945 5.55279L18.4734 10.7106L24.144 11.5354C24.5206 11.5902 24.8335 11.854 24.9511 12.216C25.0687 12.578 24.9706 12.9753 24.6981 13.241L20.571 17.2649L21.4994 22.9385C21.5608 23.3135 21.4043 23.6908 21.0957 23.9124C20.787 24.1339 20.3794 24.1614 20.0438 23.9834L15 21.3071L9.95624 23.9834C9.62062 24.1614 9.21306 24.1339 8.9044 23.9124C8.59573 23.6908 8.4393 23.3135 8.50065 22.9385L9.42906 17.2649L5.30193 13.241C5.02942 12.9753 4.93136 12.578 5.04897 12.216C5.16658 11.854 5.47946 11.5902 5.85609 11.5354L11.5267 10.7106L14.1056 5.55279C14.275 5.214 14.6213 5 15 5ZM15 8.23607L13.082 12.0722C12.9356 12.3649 12.6553 12.5675 12.3315 12.6146L8.14842 13.223L11.1981 16.1965C11.4318 16.4243 11.5396 16.7519 11.4869 17.074L10.8 21.2715L14.5313 19.2917C14.8244 19.1361 15.1756 19.1361 15.4687 19.2917L19.2 21.2715L18.5132 17.074C18.4604 16.7519 18.5682 16.4243 18.8019 16.1965L21.8516 13.223L17.6686 12.6146C17.3448 12.5675 17.0645 12.3649 16.9181 12.0722L15 8.23607Z" fill="white"/>
<path d="M13.082 12.0722L15 8.23607L16.9181 12.0722C17.0645 12.3649 17.3448 12.5675 17.6686 12.6146L21.8516 13.223L18.8019 16.1965C18.5682 16.4243 18.4604 16.7519 18.5132 17.074L19.2 21.2715L15.4687 19.2917C15.1756 19.1361 14.8244 19.1361 14.5313 19.2917L10.8 21.2715L11.4869 17.074C11.5396 16.7519 11.4318 16.4243 11.1981 16.1965L8.14842 13.223L12.3315 12.6146C12.6553 12.5675 12.9356 12.3649 13.082 12.0722Z" fill="white"/>
</svg>
