<svg width="55" height="25" viewBox="0 0 55 25" fill="none" xmlns="http://www.w3.org/2000/svg">
<path d="M53.7197 21.8547C53.934 21.8315 54.1482 21.8199 54.3506 21.8199C54.8863 20.961 53.9697 20.3343 53.4578 20.462C51.1603 21.0539 49.1247 22.4234 49.2437 24.8143C49.2556 24.9768 49.589 25 49.589 25C50.4222 23.1198 51.8864 22.052 53.7197 21.8547Z" fill="#5F0F1D"/>
<path fill-rule="evenodd" clip-rule="evenodd" d="M25.7924 8.65851C25.7805 8.68155 25.7686 8.70458 25.7686 8.7161C25.7805 8.70458 25.7924 8.68155 25.7924 8.65851Z" fill="#333332"/>
<path fill-rule="evenodd" clip-rule="evenodd" d="M50.6362 6.43006C50.3743 6.44167 50.1244 6.4997 50.0886 6.67379C49.4339 11.0725 48.0292 12.5929 47.3388 12.8135C46.9698 12.9295 46.6841 12.7902 46.7436 12.1867C46.9102 10.5619 47.8269 7.01037 47.8983 6.697C48.0054 6.22115 45.4103 6.18633 45.2913 7.21928C45.1722 8.17099 44.958 9.40124 44.9223 9.62176C44.9223 9.64497 44.9104 9.66819 44.8985 9.6914C44.5294 10.3413 43.708 11.7109 43.0057 12.2331C42.839 12.3608 42.2677 12.5697 42.2796 11.8501C42.2915 11.0261 42.9581 9.5173 43.1128 8.58881C43.339 7.2541 42.0415 6.33721 40.8392 6.43006C39.8392 6.5113 38.8631 7.6255 38.0417 9.00663C38.0655 8.84415 38.1012 8.68166 38.125 8.51917C38.3512 7.18446 37.2798 6.32561 36.0894 6.41846C35.0657 6.4997 34.0776 7.66032 33.2324 9.07627C33.3872 8.55399 33.5419 8.02011 33.6848 7.52104C33.8515 6.91752 32.4349 6.48809 31.4468 6.40685C31.304 6.39524 31.1968 6.38364 31.0778 6.39524C30.9826 6.39524 30.8992 6.47649 30.8873 6.56934C30.6969 7.79959 30.435 9.42446 30.4112 9.63337C30.4112 9.64497 30.3993 9.65658 30.3993 9.67979C29.8636 10.7011 28.5541 12.7322 27.8161 12.2448C27.078 11.7573 28.4232 9.56373 28.7684 8.36829C29.0422 7.40498 27.9113 6.97555 27.4828 6.8827C27.0423 6.78985 25.0543 6.37203 25.1138 6.10509C25.2567 3.99277 22.6616 3.78386 22.2926 5.40872C22.0188 6.63897 22.8521 7.16125 23.7449 7.48622C23.852 7.52104 23.9115 7.64871 23.8758 7.75316C22.9473 10.5386 21.5902 12.0474 21.1974 12.2215C21.0427 12.2912 20.6736 12.4537 20.5308 12.1751C20.2213 11.56 21.3998 8.54239 21.4355 8.17099C21.5545 7.0568 20.2451 6.92913 19.4832 6.98716C19.4237 6.98716 19.3761 6.97555 19.3285 6.94073C18.3523 6.16312 15.1144 5.7453 14.0311 8.97181C13.7573 9.78425 13.6383 10.1672 13.5431 10.7708C13.5431 10.7824 13.5431 10.7824 13.5431 10.794C13.2098 12.1403 12.3408 12.5581 11.7932 12.3724C10.9956 12.1055 11.9836 8.54239 8.18623 8.5656C12.2098 7.13804 12.5074 4.78199 12.6146 3.00624C12.6146 2.94821 12.686 2.89018 12.7812 2.89018C12.9122 2.87857 13.0312 2.78572 13.0788 2.66966C13.3169 2.05454 13.3407 1.45101 13.2336 0.986767C13.0907 0.394852 12.4003 -0.0113638 11.4956 0.000242421C10.1385 0.0118486 9.38854 0.893916 9.50758 2.00811C9.66234 3.44727 9.23379 6.46488 7.00772 7.6371C6.84107 7.71835 6.6506 7.59068 6.67441 7.41659C7.01963 5.03732 7.19819 3.18033 7.31723 1.0564C7.35294 0.325216 7.10296 -0.0345754 6.41252 0.0118493C6.41252 0.0118493 5.44829 0.0002424 3.746 0.638582C3.53173 0.719825 3.42459 0.940342 3.47221 1.14925C3.7341 2.24023 3.75791 4.8052 3.43649 7.98529C2.22228 8.05492 2.05562 9.5057 3.24603 9.62176C3.05556 11.1306 2.78177 12.7322 2.44845 14.3455C2.30561 15.007 4.66262 14.8097 5.44829 14.8213C5.81731 12.7554 6.10301 11.0609 6.34109 9.56373C6.3649 9.42445 6.51966 9.34321 6.6506 9.40124C8.24575 10.086 7.55531 12.5929 8.24575 13.9393C8.60287 14.624 9.05523 14.8561 10.448 14.8561C11.4837 14.8561 12.8407 14.3339 13.3645 12.5233C13.3169 14.0205 13.9359 14.4383 14.543 14.6937C15.2692 15.007 16.9238 14.9374 17.8881 13.6027C18.0785 14.3223 18.7571 14.8329 19.5308 14.8329C20.0308 14.8329 22.5069 15.0767 24.602 7.97368C24.6377 7.85762 24.7686 7.78798 24.8877 7.8228C25.5067 8.0085 25.9233 8.1942 25.7924 8.63523C25.7924 8.62363 25.8043 8.61202 25.8043 8.60042C25.34 9.6914 24.5663 11.8037 24.7567 13.2429C24.852 13.9277 25.34 14.5428 25.8995 14.7285C27.8518 15.3668 29.7207 12.2448 30.1017 11.5484L29.9112 12.651C29.685 13.9857 30.7683 14.9374 32.1968 14.7981C33.78 9.64497 35.03 8.26384 35.4942 8.2058C35.5299 8.2058 35.5418 8.2058 35.5418 8.2058C35.7561 8.26384 35.6966 8.46114 35.6966 8.46114C35.0062 10.2369 34.7324 11.4555 34.6728 13.1849C34.6252 14.4615 35.1609 14.9142 36.8989 14.7865C38.4226 9.84228 39.6368 8.34508 40.1487 8.2058C40.1844 8.1942 40.2201 8.1942 40.2678 8.2058C40.3511 8.21741 40.4225 8.31026 40.4225 8.40311C40.4225 8.43793 40.4106 8.46114 40.3987 8.48436C39.744 9.8887 39.3631 11.8269 39.3631 13.1616C39.3631 14.0785 39.9583 14.8213 40.8868 14.8213C41.7677 14.8213 43.3271 13.9393 44.5532 11.6644C44.5294 11.8501 44.5056 12.0475 44.4699 12.2564C44.2318 14.0785 45.3151 14.9374 46.4936 14.8097C47.2793 14.7285 47.9221 14.2758 48.4697 13.6375C47.4697 17.5024 47.2436 21.7966 48.3745 24.4544C48.434 24.6053 48.8149 25.0348 49.5649 24.9651C49.541 24.6285 49.553 24.4312 49.553 24.1527C49.4339 19.2317 50.0886 15.1927 52.7075 7.48622C52.9456 6.94073 51.8624 6.40685 50.6362 6.43006ZM16.4596 12.8019C15.0787 12.7902 16.1382 6.41846 18.6856 7.77638C18.6737 9.00663 18.4714 12.8135 16.4596 12.8019Z" fill="#333332"/>
<path fill-rule="evenodd" clip-rule="evenodd" d="M0.139235 16.3881C-0.265505 18.1174 0.258276 20.0672 1.11537 20.9029C2.78194 22.5045 29.1971 18.1058 42.2797 18.512C49.315 18.7325 52.2792 19.4985 53.5053 20.2413C53.8386 20.4502 54.041 20.5315 54.0053 20.8565C53.9457 21.4136 54.3029 21.7037 54.3505 21.8198C56.8146 19.7539 51.8625 17.1425 46.3033 16.6782C25.6854 14.9489 4.6866 20.427 0.139235 16.3881Z" fill="#5F0F1D"/>
</svg>
