<svg width="110" height="50" viewBox="0 0 110 50" fill="none" xmlns="http://www.w3.org/2000/svg">
<path d="M107.439 43.7095C107.867 43.663 108.296 43.6398 108.701 43.6398C109.772 41.9221 107.939 40.6686 106.915 40.924C102.32 42.1078 98.2489 44.8469 98.487 49.6286C98.5108 49.9536 99.1774 50 99.1774 50C100.844 46.2396 103.772 44.1041 107.439 43.7095Z" fill="#5F0F1D"/>
<path fill-rule="evenodd" clip-rule="evenodd" d="M51.5852 17.317C51.5614 17.3631 51.5376 17.4091 51.5376 17.4322C51.5614 17.4091 51.5852 17.3631 51.5852 17.317Z" fill="#222222"/>
<path fill-rule="evenodd" clip-rule="evenodd" d="M101.273 12.8601C100.749 12.8833 100.249 12.9994 100.178 13.3476C98.8683 22.1451 96.059 25.1859 94.6781 25.6269C93.94 25.859 93.3686 25.5805 93.4877 24.3734C93.821 21.1237 95.6542 14.0207 95.7971 13.394C96.0113 12.4423 90.8212 12.3727 90.5831 14.4386C90.345 16.342 89.9164 18.8025 89.845 19.2435C89.845 19.2899 89.8212 19.3364 89.7974 19.3828C89.0593 20.6827 87.4166 23.4217 86.0119 24.4663C85.6786 24.7216 84.5358 25.1395 84.5596 23.7003C84.5834 22.0522 85.9167 19.0346 86.2262 17.1776C86.6785 14.5082 84.0834 12.6744 81.6788 12.8601C79.6789 13.0226 77.7266 15.251 76.0839 18.0133C76.1315 17.6883 76.2029 17.3633 76.2505 17.0383C76.7029 14.3689 74.5602 12.6512 72.1793 12.8369C70.1318 12.9994 68.1558 15.3206 66.4654 18.1525C66.7749 17.108 67.0844 16.0402 67.3701 15.0421C67.7034 13.835 64.8702 12.9762 62.8941 12.8137C62.6084 12.7905 62.3942 12.7673 62.1561 12.7905C61.9656 12.7905 61.799 12.953 61.7752 13.1387C61.3942 15.5992 60.8704 18.8489 60.8228 19.2667C60.8228 19.2899 60.799 19.3132 60.799 19.3596C59.7277 21.4023 57.1088 25.4644 55.6326 24.4895C54.1565 23.5146 56.8469 19.1275 57.5373 16.7366C58.0849 14.81 55.8231 13.9511 54.966 13.7654C54.0851 13.5797 50.1091 12.7441 50.2282 12.2102C50.5139 7.98553 45.3237 7.56771 44.5856 10.8174C44.0381 13.2779 45.7046 14.3225 47.4902 14.9724C47.7045 15.0421 47.8236 15.2974 47.7521 15.5063C45.8951 21.0773 43.181 24.0949 42.3953 24.4431C42.0858 24.5824 41.3477 24.9073 41.062 24.3502C40.443 23.12 42.8 17.0848 42.8715 16.342C43.1095 14.1136 40.4906 13.8583 38.9669 13.9743C38.8479 13.9743 38.7526 13.9511 38.6574 13.8815C36.7051 12.3262 30.2293 11.4906 28.0628 17.9436C27.5152 19.5685 27.2771 20.3345 27.0866 21.5415C27.0866 21.5648 27.0866 21.5648 27.0866 21.588C26.42 24.2806 24.682 25.1162 23.5868 24.7448C21.9917 24.211 23.9678 17.0848 16.3729 17.1312C24.4201 14.2761 25.0153 9.56397 25.2296 6.01248C25.2296 5.89642 25.3724 5.78036 25.5629 5.78036C25.8248 5.75715 26.0629 5.57145 26.1581 5.33932C26.6343 4.10907 26.6819 2.90203 26.4676 1.97353C26.1819 0.789705 24.801 -0.0227275 22.9916 0.000484842C20.2775 0.0236972 18.7776 1.78783 19.0157 4.01622C19.3252 6.89455 18.4681 12.9298 14.0159 15.2742C13.6826 15.4367 13.3017 15.1814 13.3493 14.8332C14.0397 10.0746 14.3969 6.36067 14.6349 2.11281C14.7064 0.650432 14.2064 -0.0691508 12.8255 0.0236986C12.8255 0.0236986 10.8971 0.000484801 7.49249 1.27716C7.06394 1.43965 6.84967 1.88068 6.9449 2.29851C7.46868 4.48047 7.5163 9.61039 6.87348 15.9706C4.44504 16.1098 4.11173 19.0114 6.49255 19.2435C6.11162 22.2611 5.56403 25.4644 4.8974 28.6909C4.6117 30.0141 9.32572 29.6194 10.8971 29.6426C11.6351 25.5108 12.2065 22.1218 12.6827 19.1275C12.7303 18.8489 13.0398 18.6864 13.3017 18.8025C16.492 20.172 15.1111 25.1859 16.492 27.8785C17.2062 29.248 18.1109 29.7123 20.8965 29.7123C22.9678 29.7123 25.6819 28.6677 26.7295 25.0466C26.6343 28.041 27.8723 28.8766 29.0865 29.3873C30.5388 30.0141 33.8482 29.8748 35.7766 27.2054C36.1575 28.6445 37.5146 29.6659 39.0621 29.6659C40.0621 29.6659 45.0142 30.1533 49.2044 15.9474C49.2759 15.7152 49.5378 15.576 49.7758 15.6456C51.0139 16.017 51.8471 16.3884 51.5853 17.2705C51.5853 17.2473 51.6091 17.224 51.6091 17.2008C50.6805 19.3828 49.133 23.6074 49.5139 26.4858C49.7044 27.8553 50.6805 29.0856 51.7995 29.457C55.7041 30.7336 59.442 24.4895 60.2038 23.0968L59.8229 25.3019C59.3705 27.9714 61.5371 29.8748 64.3941 29.5962C67.5606 19.2899 70.0604 16.5277 70.9889 16.4116C71.0604 16.4116 71.0842 16.4116 71.0842 16.4116C71.5127 16.5277 71.3937 16.9223 71.3937 16.9223C70.0128 20.4738 69.4652 22.9111 69.3462 26.3697C69.2509 28.9231 70.3223 29.8283 73.7983 29.573C76.8457 19.6846 79.2742 16.6902 80.2979 16.4116C80.3694 16.3884 80.4408 16.3884 80.536 16.4116C80.7027 16.4348 80.8455 16.6205 80.8455 16.8062C80.8455 16.8759 80.8217 16.9223 80.7979 16.9687C79.4884 19.7774 78.7266 23.6539 78.7266 26.3233C78.7266 28.1571 79.917 29.6426 81.774 29.6426C83.5358 29.6426 86.6547 27.8785 89.107 23.3289C89.0593 23.7003 89.0117 24.0949 88.9403 24.5127C88.4641 28.1571 90.6307 29.8748 92.9877 29.6194C94.559 29.457 95.8447 28.5517 96.9399 27.275C94.94 35.0047 94.4876 43.5933 96.7494 48.9089C96.8684 49.2107 97.6303 50.0695 99.1302 49.9302C99.0826 49.2571 99.1064 48.8625 99.1064 48.3054C98.8683 38.4633 100.178 30.3854 105.416 14.9724C105.892 13.8815 103.725 12.8137 101.273 12.8601ZM32.9196 25.6037C30.1579 25.5805 32.2768 12.8369 37.3718 15.5528C37.348 18.0133 36.9432 25.6269 32.9196 25.6037Z" fill="#343332"/>
<path fill-rule="evenodd" clip-rule="evenodd" d="M0.278469 32.7761C-0.531009 36.2348 0.516551 40.1345 2.23074 41.8057C5.56389 45.009 58.3943 36.2116 84.5595 37.024C98.6301 37.465 104.558 38.997 107.011 40.4826C107.677 40.9005 108.082 41.0629 108.011 41.7129C107.891 42.8271 108.606 43.4074 108.701 43.6395C113.629 39.5077 103.725 34.2849 92.6066 33.3564C51.3708 29.8978 9.3732 40.854 0.278469 32.7761Z" fill="#5F0F1D"/>
</svg>
