<svg width="11" height="16" viewBox="0 0 11 16" fill="none" xmlns="http://www.w3.org/2000/svg">
<path d="M5.5 16C1.83307 11.128 0 7.6616 0 5.6C-1.07627e-08 4.8646 0.142262 4.1364 0.418662 3.45697C0.695063 2.77755 1.10019 2.16021 1.61091 1.6402C2.12163 1.12019 2.72795 0.707701 3.39524 0.426275C4.06253 0.144848 4.77773 0 5.5 0C6.22227 0 6.93747 0.144848 7.60476 0.426275C8.27205 0.707701 8.87836 1.12019 9.38909 1.6402C9.89981 2.16021 10.3049 2.77755 10.5813 3.45697C10.8577 4.1364 11 4.8646 11 5.6C11 7.6616 9.16693 11.128 5.5 16ZM5.5 8.8C6.33354 8.8 7.13294 8.46286 7.72234 7.86274C8.31174 7.26263 8.64286 6.44869 8.64286 5.6C8.64286 4.75131 8.31174 3.93737 7.72234 3.33726C7.13294 2.73714 6.33354 2.4 5.5 2.4C4.66646 2.4 3.86706 2.73714 3.27766 3.33726C2.68826 3.93737 2.35714 4.75131 2.35714 5.6C2.35714 6.44869 2.68826 7.26263 3.27766 7.86274C3.86706 8.46286 4.66646 8.8 5.5 8.8Z" fill="#DA331D"/>
</svg>
