<svg width="17" height="25" viewBox="0 0 17 25" fill="none" xmlns="http://www.w3.org/2000/svg">
<path d="M8.5 25C2.83293 17.3875 0 11.9712 0 8.75C-1.66332e-08 7.60093 0.219859 6.46312 0.647024 5.40152C1.07419 4.33992 1.70029 3.37533 2.48959 2.56282C3.27889 1.7503 4.21592 1.10578 5.24719 0.666054C6.27846 0.226326 7.38376 0 8.5 0C9.61624 0 10.7215 0.226326 11.7528 0.666054C12.7841 1.10578 13.7211 1.7503 14.5104 2.56282C15.2997 3.37533 15.9258 4.33992 16.353 5.40152C16.7801 6.46312 17 7.60093 17 8.75C17 11.9712 14.1671 17.3875 8.5 25ZM8.5 13.75C9.78819 13.75 11.0236 13.2232 11.9345 12.2855C12.8454 11.3479 13.3571 10.0761 13.3571 8.75C13.3571 7.42392 12.8454 6.15215 11.9345 5.21447C11.0236 4.27678 9.78819 3.75 8.5 3.75C7.21181 3.75 5.97637 4.27678 5.06548 5.21447C4.15459 6.15215 3.64286 7.42392 3.64286 8.75C3.64286 10.0761 4.15459 11.3479 5.06548 12.2855C5.97637 13.2232 7.21181 13.75 8.5 13.75Z" fill="#1D30DA"/>
</svg>
