<svg width="11" height="10" viewBox="0 0 11 10" fill="none" xmlns="http://www.w3.org/2000/svg">
<path d="M5.5 0C5.70832 0 5.89877 0.112043 5.99193 0.289417L7.41033 2.98984L10.5292 3.42168C10.7363 3.45036 10.9084 3.58849 10.9731 3.77801C11.0378 3.96752 10.9838 4.17555 10.8339 4.31466L8.56403 6.42144L9.07465 9.39189C9.10839 9.5882 9.02235 9.78577 8.85259 9.90177C8.68283 10.0178 8.45867 10.0322 8.27407 9.93892L5.5 8.53772L2.72593 9.93892C2.54133 10.0322 2.31718 10.0178 2.14741 9.90177C1.97765 9.78577 1.89161 9.5882 1.92535 9.39189L2.43597 6.42144L0.16606 4.31466C0.0161828 4.17555 -0.0377503 3.96752 0.0269332 3.77801C0.0916166 3.58849 0.263701 3.45036 0.470848 3.42168L3.58967 2.98984L5.00807 0.289417C5.10123 0.112043 5.29168 0 5.5 0ZM5.5 1.69428L4.44506 3.70273C4.36457 3.85597 4.21041 3.96203 4.0323 3.98669L1.73162 4.30525L3.40896 5.86204C3.53749 5.98133 3.59678 6.15282 3.56779 6.32146L3.19001 8.51912L5.24221 7.48254C5.40342 7.40111 5.59658 7.40111 5.75779 7.48254L7.80999 8.51912L7.43221 6.32146C7.40322 6.15282 7.46251 5.98133 7.59104 5.86204L9.26838 4.30525L6.9677 3.98669C6.78959 3.96203 6.63543 3.85597 6.55494 3.70273L5.5 1.69428Z" fill="#F45E50"/>
<path d="M4.44506 3.70273L5.5 1.69428L6.55494 3.70273C6.63543 3.85597 6.78959 3.96203 6.9677 3.98669L9.26838 4.30525L7.59104 5.86204C7.46251 5.98133 7.40322 6.15282 7.43221 6.32146L7.80999 8.51912L5.75779 7.48254C5.59658 7.40111 5.40342 7.40111 5.24221 7.48254L3.19001 8.51912L3.56779 6.32146C3.59678 6.15282 3.53749 5.98133 3.40896 5.86204L1.73162 4.30525L4.0323 3.98669C4.21041 3.96203 4.36457 3.85597 4.44506 3.70273Z" fill="#F45E50"/>
</svg>
